HIERARCHY
ROOT Hips
{
  OFFSET 196.326 95.9168 97.7182
  CHANNELS 6 Xposition Yposition Zposition Zrotation Xrotation Yrotation
  JOINT LeftUpLeg
  {
    OFFSET 8.64259 1.95398 -2.38835
    CHANNELS 3 Zrotation Xrotation Yrotation
    JOINT LeftLeg
    {
      OFFSET 43.7702 0 0
      CHANNELS 3 Zrotation Xrotation Yrotation
      JOINT LeftFoot
      {
        OFFSET 40.6238 0 0
        CHANNELS 3 Zrotation Xrotation Yrotation
        JOINT LeftToeBase
        {
          OFFSET 12.7242 0 0
          CHANNELS 3 Zrotation Xrotation Yrotation
          End Site
          {
            OFFSET 0 0 0
          }
        }
      }
    }
  }
  JOINT RightUpLeg
  {
    OFFSET -8.2249 1.95398 -2.59336
    CHANNELS 3 Zrotation Xrotation Yrotation
    JOINT RightLeg
    {
      OFFSET 43.5653 0 0
      CHANNELS 3 Zrotation Xrotation Yrotation
      JOINT RightFoot
      {
        OFFSET 40.6238 0 0
        CHANNELS 3 Zrotation Xrotation Yrotation
        JOINT RightToeBase
        {
          OFFSET 12.7242 0 0
          CHANNELS 3 Zrotation Xrotation Yrotation
          End Site
          {
            OFFSET 0 0 0
          }
        }
      }
    }
  }
  JOINT Spine
  {
    OFFSET 0.165834 0.87714 6.61349
    CHANNELS 3 Zrotation Xrotation Yrotation
    JOINT Spine1
    {
      OFFSET 7.38963 1.71661e-005 0
      CHANNELS 3 Zrotation Xrotation Yrotation
      JOINT Spine2
      {
        OFFSET 11.9445 1.14441e-005 0
        CHANNELS 3 Zrotation Xrotation Yrotation
        JOINT Spine3
        {
          OFFSET 14.7254 4.19617e-005 0
          CHANNELS 3 Zrotation Xrotation Yrotation
          JOINT Spine4
          {
            OFFSET 10.9679 0 0
            CHANNELS 3 Zrotation Xrotation Yrotation
            JOINT RightShoulder
            {
              OFFSET 2.46616 -1.6653 3.69651
              CHANNELS 3 Zrotation Xrotation Yrotation
              JOINT RightArm
              {
                OFFSET 13.0012 0 0
                CHANNELS 3 Zrotation Xrotation Yrotation
                JOINT RightForeArm
                {
                  OFFSET 28.7848 1.52588e-005 0
                  CHANNELS 3 Zrotation Xrotation Yrotation
                  JOINT RightHand
                  {
                    OFFSET 26.5688 1.52588e-005 0
                    CHANNELS 3 Zrotation Xrotation Yrotation
                    End Site
                    {
                      OFFSET 0 0 0
                    }
                  }
                }
              }
            }
            JOINT LeftShoulder
            {
              OFFSET 2.38034 -1.29275 -3.75231
              CHANNELS 3 Zrotation Xrotation Yrotation
              JOINT LeftArm
              {
                OFFSET 16.3182 6.10351e-005 0
                CHANNELS 3 Zrotation Xrotation Yrotation
                JOINT LeftForeArm
                {
                  OFFSET 27.0901 0 0
                  CHANNELS 3 Zrotation Xrotation Yrotation
                  JOINT LeftHand
                  {
                    OFFSET 24.5451 1.52588e-005 0
                    CHANNELS 3 Zrotation Xrotation Yrotation
                    End Site
                    {
                      OFFSET 0 0 0
                    }
                  }
                }
              }
            }
            JOINT Neck
            {
              OFFSET 5.0226 -0.0266342 0
              CHANNELS 3 Zrotation Xrotation Yrotation
              JOINT Head
              {
                OFFSET 6.69363 2.86102e-005 0
                CHANNELS 3 Zrotation Xrotation Yrotation
                End Site
                {
                  OFFSET 0 0 0
                }
              }
            }
          }
        }
      }
    }
  }
}
MOTION
Frames:	13
Frame Time:	0.0416667
-74.6742 94.4489 -82.1991 -0.974162 -86.844 -1.12393 -165.657 15.1466 86.9467 -27.0106 -3.45505 -5.06493 64.9744 17.9206 23.4076 48.9067 18.0476 -17.6168 177.728 15.2246 82.0579 -21.7422 -1.77289 -3.87753 66.5352 -2.01753 -1.00573 44.4906 2.42006 18.9851 -0.271323 7.61567 -90.7544 11.6349 -0.893207 -1.41054 -0.03642 -0.954416 -1.36988 -22.5662 -0.428054 -1.61373 -2.55355 -0.42805 -1.61373 83.7077 -48.1059 -111.027 15.0527 -35.6318 -13.8876 -25.5636 23.6594 -113.528 -19.1535 -1.33218 3.21555 -101.474 -40.2248 57.701 -34.5951 3.03857 9.17882 8.31783 1.83024 -56.5493 13.9784 0.483602 -0.375105 -2.83954 4.5094 -4.49242 11.1433 7.00574 12.6986 
-75.9293 94.6969 -82.2526 -6.46585 -86.9698 -6.54352 -166.365 14.7669 87.6351 -25.4777 -1.60236 -4.59257 61.7066 16.1444 26.8257 50.8325 19.0739 -19.8883 177.6 14.3418 82.7402 -20.3455 -2.0335 -3.49452 67.2846 -2.32408 -1.17963 43.5661 2.22163 19.2134 -0.269334 7.59532 -90.6875 11.6768 -0.858134 -1.28063 0.00549318 -0.913662 -1.24163 -22.5254 -0.433629 -1.47929 -2.5127 -0.433633 -1.4793 83.1861 -48.7594 -111.59 14.7688 -35.0529 -13.2904 -25.5002 23.6846 -113.449 -19.2072 -1.32995 3.18412 -101.655 -40.3245 57.4619 -34.0511 2.96245 9.10276 8.54969 2.11708 -56.2879 14.4365 0.570315 0.101334 -3.12907 4.66839 -4.23736 11.399 7.02682 11.902 
-77.0664 95.0018 -82.2935 -12.7722 -87.0647 -12.9465 -166.664 14.6059 88.3011 -25.1598 -2.49934 -4.22224 62.3711 15.1184 23.8412 47.2868 15.9945 -21.9148 177.454 13.9051 83.1635 -19.7333 -2.67949 -3.17257 67.2893 -2.34187 -1.18713 43.2979 2.14011 18.916 -0.273236 7.59512 -90.62 11.6781 -0.834251 -1.14859 0.00698077 -0.883992 -1.11077 -22.5249 -0.45052 -1.34618 -2.51227 -0.450524 -1.34618 82.8629 -49.1907 -111.924 14.4225 -34.7143 -13.1564 -25.0905 23.3985 -113.708 -19.2995 -1.33108 3.14169 -101.572 -40.5926 57.7199 -33.3665 3.23877 8.55054 8.58845 2.45985 -55.4381 15.06 0.610961 0.203667 -2.69145 4.73989 -3.75084 10.8919 6.90312 11.2801 
-78.1561 95.3149 -82.3609 -15.4495 -87.2001 -15.8628 -167.025 14.4773 88.8491 -24.9772 -4.24938 -3.82946 63.0782 13.4453 19.72 45.9199 14.941 -22.1218 177.316 13.3426 83.4726 -18.9859 -3.20703 -2.95021 67.2632 -2.3832 -1.21106 43.4197 2.09569 17.8863 -0.296185 7.59738 -90.5272 11.6747 -0.836317 -0.96344 0.00373349 -0.877915 -0.925708 -22.5295 -0.508125 -1.17023 -2.51688 -0.508128 -1.17023 82.5725 -49.6987 -112.178 14.051 -34.6041 -13.4107 -24.944 23.1685 -113.568 -19.1849 -1.2468 2.6566 -101.701 -40.6664 57.5518 -32.6624 3.20613 8.46224 8.15813 2.2455 -54.8086 15.387 0.628161 0.227749 -2.60636 4.86263 -3.53192 10.9913 6.96768 11.0005 
-79.1975 95.5171 -82.4437 -25.2027 -87.0833 -25.7773 -166.974 14.2034 89.4098 -24.3984 -4.96637 -3.70838 63.4632 12.814 17.864 43.4752 13.0656 -22.587 177.497 13.0571 83.9613 -18.4897 -3.44725 -2.92905 67.5537 -2.49255 -1.2699 42.2444 1.82588 17.7164 -0.269583 7.57722 -90.4617 11.716 -0.752823 -0.841196 0.0450487 -0.789115 -0.807257 -22.4887 -0.465226 -1.02855 -2.47609 -0.465223 -1.02855 82.3635 -49.7115 -112.486 14.6871 -34.2649 -13.0222 -24.8866 23.3266 -113.576 -18.047 -1.22422 2.97869 -101.693 -40.6966 57.5781 -32.2765 2.95735 8.47068 8.28712 2.38155 -54.4919 15.1432 0.665856 0.536915 -2.50219 4.94188 -2.96397 10.6743 6.84642 10.323 
-80.0862 95.7071 -82.4542 -28.4203 -87.0313 -29.1058 -166.995 13.8465 89.9081 -23.4664 -5.133 -3.59042 62.6152 11.8025 17.518 44.401 13.5069 -24.4438 177.642 12.8342 84.3921 -18.1141 -3.36626 -2.87957 67.3579 -2.42435 -1.23337 40.8801 1.54484 18.1586 -0.2907 7.56279 -90.3967 11.7454 -0.764407 -0.710145 0.0745225 -0.794918 -0.675823 -22.46 -0.515653 -0.907042 -2.44737 -0.515644 -0.907037 82.4983 -49.493 -112.363 15.1732 -34.3994 -13.376 -24.7912 22.8133 -113.465 -18.9499 -1.32043 3.21736 -101.044 -40.5622 58.5372 -32.2267 2.82187 8.3347 8.61369 2.68043 -54.3955 14.8651 0.66778 0.628494 -1.80549 5.1403 -2.59161 9.80759 6.85247 9.78458 
-80.8553 95.8096 -82.4829 -33.8959 -87.0032 -34.8852 -167.082 13.2115 90.1353 -22.3231 -5.03296 -3.53258 61.7787 11.0299 17.5699 44.8019 13.8418 -24.0865 177.572 12.8555 84.4986 -18.2388 -3.51217 -2.74827 67.2687 -2.39984 -1.22079 39.7285 1.35456 20.0233 -0.269197 7.54954 -90.3582 11.7728 -0.703657 -0.639724 0.101926 -0.731123 -0.60814 -22.4328 -0.47887 -0.821615 -2.42017 -0.478872 -0.821626 82.5892 -49.4577 -112.24 15.0339 -34.2712 -13.4247 -24.2794 22.6389 -113.476 -18.4692 -1.25574 2.9913 -101.516 -40.8535 57.9299 -31.5963 2.49354 8.40407 8.43391 2.45467 -54.1355 14.3435 0.60511 0.364124 -1.96771 4.95226 -2.05606 9.90619 6.53841 9.32664 
-81.5706 95.8628 -82.5083 -39.1214 -86.7606 -40.2402 -167.037 12.6588 90.4105 -21.0723 -5.20879 -3.56193 61.5423 11.0785 18.0887 44.1843 13.245 -25.2979 177.726 13.0916 84.809 -18.532 -3.71426 -2.73696 67.2341 -2.4153 -1.2319 37.6168 0.859063 20.9106 -0.248406 7.50575 -90.3392 11.8602 -0.653499 -0.606413 0.189271 -0.679562 -0.577064 -22.3454 -0.441051 -0.774769 -2.33277 -0.441046 -0.774778 82.3555 -49.7254 -112.493 14.9071 -34.1891 -13.095 -24.1387 22.5196 -113.548 -18.4187 -1.18486 2.54773 -101.789 -41.3541 57.7347 -31.0877 2.17282 8.65362 8.64791 2.52675 -54.3015 15.0172 0.684516 0.692721 -2.11559 5.01678 -1.69215 9.83412 6.55846 9.38427 
-82.1502 95.9818 -82.5245 -43.3378 -86.6983 -44.884 -167.235 11.9902 90.4185 -20.1564 -6.47518 -3.47374 61.6107 10.3883 16.431 43.1241 12.622 -24.2045 177.797 13.2314 84.7762 -18.8868 -3.83013 -2.84668 66.8401 -2.30967 -1.17595 36.9171 0.69092 21.4728 -0.284802 7.53502 -90.219 11.8027 -0.669309 -0.365624 0.131929 -0.684743 -0.335816 -22.4038 -0.528481 -0.549883 -2.39112 -0.528474 -0.549871 81.6309 -49.8861 -113.516 14.5419 -34.0114 -13.6997 -24.0589 22.3437 -113.447 -19.0761 -1.38324 3.53436 -100.812 -40.8108 59.0169 -31.0092 2.28614 8.20494 8.72276 2.70248 -54.0714 14.6797 0.634068 0.460648 -1.3243 5.21444 -2.07699 9.16322 6.71104 9.06826 
-82.6652 95.9871 -82.5433 -46.2899 -86.5544 -48.1101 -167.25 11.186 90.5048 -18.4256 -5.32435 -3.63995 60.0588 10.3179 19.0805 45.6528 14.0449 -26.9316 177.811 13.4934 84.8296 -19.3555 -3.85603 -2.81041 67.1859 -2.40674 -1.22719 36.131 0.493919 22.5617 -0.253167 7.51167 -90.2409 11.8496 -0.616744 -0.414564 0.178714 -0.634394 -0.387016 -22.3567 -0.463639 -0.580752 -2.34402 -0.463641 -0.580755 82.0386 -49.6075 -113.011 14.3334 -34.1596 -13.8455 -23.3069 22.2684 -113.692 -18.7084 -1.50065 4.41115 -101.526 -41.3963 58.1709 -30.6984 1.70064 8.27186 8.59427 2.40829 -54.0737 15.0033 0.681273 0.677821 -1.1619 4.94246 -1.48261 8.59746 6.28643 8.81246 
-83.1101 96.0547 -82.4814 -46.3323 -86.3629 -48.14 -167.301 10.9465 90.8225 -17.6633 -5.29813 -3.70716 59.6274 9.93326 19.4052 45.5421 14.0303 -26.5051 177.984 13.5855 85.1491 -19.2753 -3.62546 -2.83231 66.8636 -2.3677 -1.21397 36.3242 0.549502 23.6904 -0.453153 7.48683 -90.0431 11.9003 -0.921319 0.012986 0.229655 -0.919857 0.0535186 -22.3079 -0.882627 -0.264534 -2.29529 -0.882627 -0.264535 79.4543 -50.8589 -116.35 13.8909 -34.2686 -14.2442 -24.0231 22.4964 -113.04 -18.6815 -1.31369 3.26296 -97.2525 -39.5713 64.1841 -32.5355 2.52832 7.68239 8.98229 2.95537 -54.3613 15.2172 0.722334 0.881855 -0.0132737 6.00012 -2.75667 7.62888 7.46359 8.98466 
-83.4993 96.1219 -82.4725 -48.3155 -86.5162 -50.2103 -167.463 10.434 91.0123 -16.9109 -4.96826 -3.67402 59.0187 9.49062 19.8073 45.5273 13.9833 -26.7539 178.081 13.3955 85.3427 -19.3307 -3.3666 -2.89472 66.6982 -2.34578 -1.20648 36.1792 0.511012 24.598 -0.303937 7.47936 -90.2147 11.9151 -0.705451 -0.352344 0.2443 -0.720274 -0.320959 -22.2916 -0.566943 -0.548074 -2.27893 -0.566945 -0.548077 81.2406 -49.9873 -114.053 13.8365 -34.2486 -13.8511 -23.8372 22.4597 -113.369 -18.6576 -1.59781 5.08029 -100.708 -41.1412 59.351 -30.9857 1.41594 8.34363 8.55447 2.28885 -54.03 14.7083 0.68208 0.772073 -1.17006 5.2864 -1.0569 8.51232 6.55892 8.75055 
-83.8839 96.1999 -82.4764 -48.4446 -86.7835 -50.6258 -167.776 10.0372 91.0137 -16.5022 -5.35305 -3.51765 58.9478 8.83322 18.6097 44.0653 13.4239 -23.1978 178.037 13.2775 85.3287 -19.4732 -2.9882 -2.90045 66.6543 -2.35245 -1.21155 35.8808 0.42613 25.6538 -0.290983 7.47842 -90.2528 11.9157 -0.697639 -0.428995 0.244845 -0.715837 -0.397877 -22.2907 -0.536457 -0.618823 -2.27806 -0.536453 -0.618835 81.7148 -49.6376 -113.484 14.0358 -34.0132 -13.5947 -24.166 22.4076 -113.095 -18.5592 -1.27221 3.0544 -101.493 -41.5998 58.3104 -30.6718 1.06686 8.21384 8.38767 2.12663 -53.6302 14.6338 0.679065 0.774269 -1.49574 5.03808 -0.414581 8.8516 6.24687 8.70379 
